<svg width="88" height="36" viewBox="0 0 88 36" fill="none" xmlns="http://www.w3.org/2000/svg">
<path d="M30.8613 18.0371C30.2819 18.0371 29.7676 18.151 29.3184 18.3789C28.8757 18.6003 28.5013 18.9225 28.1953 19.3457C27.8958 19.7689 27.668 20.2799 27.5117 20.8789C27.3555 21.4779 27.2773 22.1517 27.2773 22.9004C27.2773 23.9095 27.401 24.7721 27.6484 25.4883C27.9023 26.1979 28.293 26.7415 28.8203 27.1191C29.3477 27.4902 30.028 27.6758 30.8613 27.6758C31.4408 27.6758 32.0202 27.6107 32.5996 27.4805C33.1855 27.3503 33.8203 27.1647 34.5039 26.9238V29.4629C33.8724 29.7233 33.2507 29.9089 32.6387 30.0195C32.0267 30.1367 31.3398 30.1953 30.5781 30.1953C29.1068 30.1953 27.8958 29.8926 26.9453 29.2871C26.0013 28.6751 25.3014 27.8223 24.8457 26.7285C24.39 25.6283 24.1621 24.3457 24.1621 22.8809C24.1621 21.8001 24.3086 20.8105 24.6016 19.9121C24.8945 19.0137 25.3242 18.2357 25.8906 17.5781C26.457 16.9206 27.1569 16.4128 27.9902 16.0547C28.8236 15.6966 29.7806 15.5176 30.8613 15.5176C31.571 15.5176 32.2806 15.6087 32.9902 15.791C33.7064 15.9668 34.39 16.2109 35.041 16.5234L34.0645 18.9844C33.5306 18.7305 32.9935 18.5091 32.4531 18.3203C31.9128 18.1315 31.3822 18.0371 30.8613 18.0371ZM46.291 30L45.2559 26.6016H40.0508L39.0156 30H35.7539L40.793 15.6641H44.4941L49.5527 30H46.291ZM44.5332 24.0625L43.498 20.7422C43.4329 20.5208 43.3451 20.2376 43.2344 19.8926C43.1302 19.541 43.0228 19.1862 42.9121 18.8281C42.8079 18.4635 42.7233 18.1478 42.6582 17.8809C42.5931 18.1478 42.502 18.4798 42.3848 18.877C42.2741 19.2676 42.1667 19.6387 42.0625 19.9902C41.9583 20.3418 41.8835 20.5924 41.8379 20.7422L40.8125 24.0625H44.5332ZM55.5195 15.7227C56.8151 15.7227 57.8828 15.8789 58.7227 16.1914C59.569 16.5039 60.1973 16.9759 60.6074 17.6074C61.0176 18.2389 61.2227 19.0365 61.2227 20C61.2227 20.651 61.099 21.2207 60.8516 21.709C60.6042 22.1973 60.2786 22.6107 59.875 22.9492C59.4714 23.2878 59.0352 23.5645 58.5664 23.7793L62.7656 30H59.4062L55.998 24.5215H54.3867V30H51.3594V15.7227H55.5195ZM55.3047 18.2031H54.3867V22.0605H55.3633C56.3659 22.0605 57.082 21.8945 57.5117 21.5625C57.9479 21.224 58.166 20.7292 58.166 20.0781C58.166 19.401 57.9316 18.9193 57.4629 18.6328C57.0007 18.3464 56.2812 18.2031 55.3047 18.2031ZM70.0703 30H67.043V18.2422H63.166V15.7227H73.9473V18.2422H70.0703V30Z" fill="black"/>
<g clip-path="url(#clip0_174_6)">
<path d="M5.83334 28C4.91668 28 4.17501 28.75 4.17501 29.6667C4.17501 30.5834 4.91668 31.3334 5.83334 31.3334C6.75001 31.3334 7.50001 30.5834 7.50001 29.6667C7.50001 28.75 6.75001 28 5.83334 28ZM0.833344 14.6667V16.3334H2.50001L5.50001 22.6584L4.37501 24.7C4.24168 24.9334 4.16668 25.2084 4.16668 25.5C4.16668 26.4167 4.91668 27.1667 5.83334 27.1667H15.8333V25.5H6.18334C6.06668 25.5 5.97501 25.4084 5.97501 25.2917L6.00001 25.1917L6.75001 23.8334H12.9583C13.5833 23.8334 14.1333 23.4917 14.4167 22.975L17.4 17.5667C17.4667 17.45 17.5 17.3084 17.5 17.1667C17.5 16.7084 17.125 16.3334 16.6667 16.3334H4.34168L3.55834 14.6667H0.833344ZM14.1667 28C13.25 28 12.5083 28.75 12.5083 29.6667C12.5083 30.5834 13.25 31.3334 14.1667 31.3334C15.0833 31.3334 15.8333 30.5834 15.8333 29.6667C15.8333 28.75 15.0833 28 14.1667 28Z" fill="black"/>
</g>
<circle cx="78" cy="13" r="9.5" fill="white" stroke="#F4CE62"/>
<path d="M82.6328 12.5752C82.6328 13.6123 82.5508 14.5381 82.3867 15.3525C82.2285 16.167 81.9707 16.8584 81.6133 17.4268C81.2617 17.9951 80.7988 18.4287 80.2246 18.7275C79.6504 19.0264 78.9531 19.1758 78.1328 19.1758C77.1016 19.1758 76.2549 18.915 75.5928 18.3936C74.9307 17.8662 74.4414 17.1104 74.125 16.126C73.8086 15.1357 73.6504 13.9521 73.6504 12.5752C73.6504 11.1865 73.7939 10 74.0811 9.01562C74.374 8.02539 74.8486 7.2666 75.5049 6.73926C76.1611 6.21191 77.0371 5.94824 78.1328 5.94824C79.1582 5.94824 80.002 6.21191 80.6641 6.73926C81.332 7.26074 81.8271 8.0166 82.1494 9.00684C82.4717 9.99121 82.6328 11.1807 82.6328 12.5752ZM76.3486 12.5752C76.3486 13.5537 76.4014 14.3711 76.5068 15.0273C76.6182 15.6777 76.8027 16.167 77.0605 16.4951C77.3184 16.8232 77.6758 16.9873 78.1328 16.9873C78.584 16.9873 78.9385 16.8262 79.1963 16.5039C79.46 16.1758 79.6475 15.6865 79.7588 15.0361C79.8701 14.3799 79.9258 13.5596 79.9258 12.5752C79.9258 11.5967 79.8701 10.7793 79.7588 10.123C79.6475 9.4668 79.46 8.97461 79.1963 8.64648C78.9385 8.3125 78.584 8.14551 78.1328 8.14551C77.6758 8.14551 77.3184 8.3125 77.0605 8.64648C76.8027 8.97461 76.6182 9.4668 76.5068 10.123C76.4014 10.7793 76.3486 11.5967 76.3486 12.5752Z" fill="black"/>
<defs>
<clipPath id="clip0_174_6">
<rect width="20" height="20" fill="white" transform="translate(0 13)"/>
</clipPath>
</defs>
</svg>
